<svg width="420" height="102" viewBox="0 0 420 102" fill="none" xmlns="http://www.w3.org/2000/svg">
<path d="M205.873 44.3988C205.873 29.6923 205.873 14.9961 205.873 0.31012H234.31V2.15869C227.429 2.15869 220.548 2.15869 213.668 2.15869V21.4456C217.919 21.4456 222.171 21.4456 226.423 21.4456V23.2633C222.171 23.2633 217.919 23.2633 213.668 23.2633V42.5502C220.548 42.5502 227.429 42.5502 234.31 42.5502V44.3988L205.873 44.3988Z" fill="black"/>
<path d="M240.287 15.715L251.687 44.4296H254.09L265.489 15.715H263.086L255.569 34.6629L248.051 15.715H240.287Z" fill="black"/>
<path d="M319.468 44.3372H327.263C327.263 43.5977 327.263 42.0316 327.263 39.6387C327.263 37.2458 327.263 34.8529 327.263 32.46C327.263 30.0671 327.263 28.3777 327.263 27.3918C327.201 24.6395 326.462 22.3493 325.045 20.5213C323.627 18.7138 321.851 17.4095 319.714 16.6084C317.599 15.7868 315.452 15.5198 313.275 15.8074C311.119 16.0744 309.27 16.9268 307.73 18.3646V15.6533L299.935 15.6225V25.2968L292.725 31.1814V30.1955C292.766 28.3675 292.664 26.56 292.417 24.773C291.924 21.8153 290.671 19.5354 288.658 17.9333C286.666 16.3106 284.006 15.3658 280.679 15.0988C278.05 14.8934 275.646 15.2528 273.469 16.1771C271.292 17.1219 269.905 18.5597 269.31 20.4905C268.94 22.2158 269.402 23.4995 270.696 24.3417C272.011 25.1838 273.705 25.2352 275.78 24.4957C274.732 24.0439 274.116 23.212 273.931 22.0002C273.767 20.7883 274.106 19.6689 274.948 18.6419C275.811 17.6149 277.269 17.1528 279.323 17.2555C281.028 17.4814 282.312 18.2722 283.174 19.6278C284.037 20.9834 284.499 22.5034 284.561 24.1876L284.715 27.0221C284.694 27.0837 284.622 27.1248 284.499 27.1454C284.355 27.1454 284.191 27.1351 284.006 27.1146C281.295 26.8475 278.614 27.0016 275.965 27.5767C272.494 28.4804 270.07 29.9799 268.694 32.0749C267.317 34.17 266.845 36.3267 267.276 38.5449C267.687 40.7427 268.868 42.4475 270.819 43.6594C272.771 44.8712 275.338 45.0458 278.522 44.1831C280.103 43.6902 281.531 42.9096 282.804 41.8416L310.133 18.95C311.016 18.3543 311.981 17.9538 313.029 17.7484C314.097 17.543 315.114 17.6251 316.079 17.9949C317.044 18.3646 317.845 19.0938 318.482 20.1824C319.119 21.2915 319.437 22.8731 319.437 24.9271C319.437 25.0914 319.437 25.5227 319.437 26.2211C319.437 26.9605 319.437 28.3675 319.437 30.442C319.437 32.5165 319.437 34.6835 319.437 36.9428C319.437 38.6065 319.442 40.106 319.453 41.441C319.463 42.7761 319.468 43.7415 319.468 44.3372ZM299.965 44.3372L299.935 29.7334L301.506 28.4394C303.19 27.1864 304.654 26.7962 305.896 27.2686C307.139 27.741 307.76 28.7988 307.76 30.442V44.3372H299.965ZM285.177 42.2729L292.725 35.8645C292.725 38.699 292.725 41.5335 292.725 44.368C290.199 44.368 287.683 44.368 285.177 44.368V42.2729ZM284.93 37.405C283.883 38.8838 282.517 39.8903 280.833 40.4243C279.148 40.9584 277.505 40.7016 275.903 39.6541C274.691 38.6476 273.983 37.3947 273.777 35.8953C273.572 34.3959 273.983 32.9684 275.01 31.6128C276.037 30.2777 277.783 29.3328 280.247 28.7783C281.829 28.4907 283.349 28.4291 284.807 28.5934L284.93 37.405Z" fill="black"/>
<path d="M360.476 44.7993C357.888 44.7993 355.289 44.7993 352.681 44.7993V42.581C350.709 44.0393 348.522 44.7685 346.118 44.7685C342.154 44.7685 338.765 43.3666 335.951 40.563C333.137 37.7593 331.73 34.3753 331.73 30.4112C331.73 26.4264 333.137 23.0323 335.951 20.2286C338.765 17.4249 342.154 16.0231 346.118 16.0231C348.48 16.0231 350.668 16.5468 352.681 17.5943V0.710632H360.476C360.476 8.57737 360.476 16.4441 360.476 24.3109C360.476 31.1506 360.476 37.9801 360.476 44.7993ZM352.681 27.3918C352.681 23.9001 352.07 21.3891 350.848 19.8589C349.626 18.3286 348.049 17.6354 346.118 17.7792C344.188 17.9641 342.611 19.2427 341.389 21.615C340.167 23.9874 339.556 26.9194 339.556 30.4112C339.556 35.6488 340.891 39.5206 343.561 42.0264C345.369 43.2999 347.34 43.5207 349.477 42.6888C351.613 41.857 352.681 40.3011 352.681 38.0212L352.681 27.3918Z" fill="black"/>
<path d="M365.991 44.4296H373.785V31.1506C373.765 29.261 374.124 27.0735 374.864 24.5882C375.603 22.1028 376.784 20.3467 378.407 19.3197C380.071 18.5187 381.354 18.4673 382.258 19.1656C383.162 19.864 383.665 20.7883 383.768 21.9385C383.87 23.0888 383.542 23.9617 382.782 24.5573C385.288 25.1941 386.962 24.696 387.804 23.0631C388.646 21.4302 388.579 19.6894 387.604 17.8408C386.628 15.9922 384.672 15.068 381.734 15.068C378.243 15.2117 375.593 17.6046 373.785 22.2466V15.715H365.991L365.991 44.4296Z" fill="black"/>
<path d="M405.612 15.6534C402.962 15.6534 400.549 16.3004 398.372 17.5944C396.194 18.8884 394.459 20.624 393.165 22.8012C391.871 24.9784 391.224 27.3918 391.224 30.0415C391.224 32.6911 391.871 35.1045 393.165 37.2818C394.459 39.459 396.194 41.1946 398.372 42.4886C400.549 43.7826 402.962 44.4296 405.612 44.4296C408.262 44.4296 410.675 43.7826 412.852 42.4886C415.029 41.1946 416.765 39.459 418.059 37.2818C419.353 35.1045 420 32.6911 420 30.0415C420 27.3918 419.353 24.9784 418.059 22.8012C416.765 20.624 415.029 18.8884 412.852 17.5944C410.675 16.3004 408.262 15.6534 405.612 15.6534ZM405.612 17.4095C407.419 17.4095 408.965 18.6419 410.249 21.1067C411.532 23.5714 412.174 26.5497 412.174 30.0415C412.174 33.5332 411.532 36.5115 410.249 38.9763C408.965 41.441 407.419 42.6734 405.612 42.6734C403.804 42.6734 402.254 41.441 400.96 38.9763C399.666 36.5115 399.019 33.5332 399.019 30.0415C399.019 26.5497 399.666 23.5714 400.96 21.1067C402.254 18.6419 403.804 17.4095 405.612 17.4095Z" fill="black"/>
<path d="M214.653 78.5072V53.3464H221.698C226.001 53.3464 228.818 55.446 230.149 59.6453C231.479 63.8446 231.415 67.957 229.958 71.9828C228.5 76.0085 225.712 78.1833 221.594 78.5072H214.653ZM231.832 78.5419C236.413 76.2283 239.068 72.9545 239.796 68.7206C240.525 64.4866 239.53 60.5939 236.812 57.0425C234.093 53.491 229.842 51.5996 224.058 51.3683H205.873C205.873 67.9339 205.873 84.488 205.873 101.031H214.653C214.653 94.1822 214.653 87.3338 214.653 80.4854H223.294C224.127 80.4854 225.151 80.6127 226.366 80.8672C227.58 81.1217 228.662 81.7406 229.611 82.7239C230.559 83.7072 231.034 85.2862 231.034 87.461V101.031H239.814V89.2657C239.814 86.9752 239.05 84.7194 237.523 82.4983C235.996 80.2772 234.099 78.9584 231.832 78.5419Z" fill="black"/>
<path d="M250.121 101.273H258.901V68.9288H250.121V101.273ZM254.112 54.2487C255.454 54.2487 256.599 54.723 257.548 55.6716C258.496 56.6202 258.971 57.7655 258.971 59.1074C258.971 60.4493 258.496 61.5888 257.548 62.5258C256.599 63.4628 255.454 63.9313 254.112 63.9313C252.77 63.9313 251.625 63.4628 250.676 62.5258C249.728 61.5888 249.253 60.4493 249.253 59.1074C249.253 57.7655 249.728 56.6202 250.676 55.6716C251.625 54.723 252.77 54.2487 254.112 54.2487Z" fill="black"/>
<path d="M267.89 101.655V51.9929H276.67V71.7746C278.937 69.9931 281.425 69.1486 284.132 69.2411C288.481 69.3337 292.264 70.8722 295.48 73.8568C298.696 76.8414 300.304 80.7052 300.304 85.4482C300.304 89.9135 298.719 93.7252 295.549 96.8833C292.38 100.041 288.562 101.62 284.097 101.62C280.21 101.62 277.526 101.216 276.045 100.406C274.773 99.9431 273.558 99.7291 272.401 99.7638C271.245 99.7985 269.741 100.429 267.89 101.655ZM276.67 88.8145C276.67 92.7708 277.364 95.605 278.752 97.3171C280.14 99.0292 281.922 99.8043 284.097 99.6423C286.272 99.4341 288.047 97.9939 289.424 95.3216C290.801 92.6494 291.489 89.3582 291.489 85.4482C291.489 79.5484 289.985 75.1756 286.977 72.3298C284.941 70.8491 282.714 70.5772 280.297 71.5143C277.879 72.4513 276.67 74.5625 276.67 77.8479V88.8145Z" fill="black"/>
<path d="M312.832 85.4829C312.925 88.213 313.532 90.7059 314.654 92.9617C315.776 95.2175 317.471 96.8197 319.738 97.7683C321.844 98.5087 323.967 98.7574 326.107 98.5145C328.247 98.2715 330.023 97.8146 331.434 97.1436C329.953 98.5549 328.258 99.6655 326.35 100.475C324.441 101.285 322.388 101.69 320.19 101.69C317.205 101.69 314.486 100.961 312.034 99.5035C309.582 98.0459 307.627 96.0909 306.169 93.6384C304.711 91.186 303.983 88.4675 303.983 85.4829C303.983 82.4983 304.711 79.7797 306.169 77.3273C307.627 74.8748 309.582 72.9198 312.034 71.4622C314.486 70.0046 317.205 69.2758 320.19 69.2758C323.174 69.2758 325.893 70.0046 328.345 71.4622C330.798 72.9198 332.753 74.8748 334.21 77.3273C335.668 79.7797 336.397 82.4983 336.397 85.4829H312.832ZM327.512 83.4006C327.443 82.3363 327.281 81.1332 327.026 79.7913C326.772 78.4494 326.373 77.1422 325.829 75.8697C325.285 74.5972 324.557 73.5387 323.643 72.6942C322.729 71.8497 321.566 71.4275 320.155 71.4275C318.882 71.4275 317.789 71.844 316.875 72.6769C315.961 73.5098 315.215 74.5625 314.637 75.835C314.058 77.1075 313.625 78.4205 313.335 79.774C313.046 81.1275 312.879 82.3363 312.832 83.4006H327.512Z" fill="black"/>
<path d="M341.984 101.273H350.764V68.9288H341.984V101.273ZM345.975 54.2487C347.317 54.2487 348.462 54.723 349.411 55.6716C350.359 56.6202 350.834 57.7655 350.834 59.1074C350.834 60.4493 350.359 61.5888 349.411 62.5258C348.462 63.4628 347.317 63.9313 345.975 63.9313C344.633 63.9313 343.488 63.4628 342.539 62.5258C341.591 61.5888 341.116 60.4493 341.116 59.1074C341.116 57.7655 341.591 56.6202 342.539 55.6716C343.488 54.723 344.633 54.2487 345.975 54.2487Z" fill="black"/>
<path d="M359.163 101.239H367.943V86.2811C367.92 84.1525 368.325 81.6885 369.158 78.889C369.991 76.0895 371.321 74.1113 373.149 72.9545C375.023 72.0522 376.469 71.9944 377.487 72.781C378.505 73.5676 379.072 74.6088 379.187 75.9044C379.303 77.2 378.933 78.1833 378.077 78.8543C380.899 79.5715 382.785 79.0105 383.734 77.1711C384.682 75.3318 384.607 73.371 383.508 71.2887C382.409 69.2064 380.205 68.1653 376.897 68.1653C372.964 68.3272 369.979 71.0226 367.943 76.2514V68.8941H359.163V101.239Z" fill="black"/>
<path d="M403.793 68.8247C400.808 68.8247 398.09 69.5535 395.637 71.0111C393.185 72.4687 391.23 74.4237 389.772 76.8761C388.315 79.3286 387.586 82.0471 387.586 85.0317C387.586 88.0163 388.315 90.7348 389.772 93.1873C391.23 95.6398 393.185 97.5948 395.637 99.0524C398.09 100.51 400.808 101.239 403.793 101.239C406.778 101.239 409.496 100.51 411.949 99.0524C414.401 97.5948 416.356 95.6398 417.814 93.1873C419.271 90.7348 420 88.0163 420 85.0317C420 82.0471 419.271 79.3286 417.814 76.8761C416.356 74.4237 414.401 72.4687 411.949 71.0111C409.496 69.5535 406.778 68.8247 403.793 68.8247ZM403.793 70.8028C405.829 70.8028 407.57 72.191 409.016 74.9674C410.462 77.7437 411.185 81.0985 411.185 85.0317C411.185 88.9649 410.462 92.3197 409.016 95.096C407.57 97.8724 405.829 99.2606 403.793 99.2606C401.757 99.2606 400.01 97.8724 398.553 95.096C397.095 92.3197 396.366 88.9649 396.366 85.0317C396.366 81.0985 397.095 77.7437 398.553 74.9674C400.01 72.191 401.757 70.8028 403.793 70.8028Z" fill="black"/>
<path d="M173.549 5.8118C169.078 2.17119 161.382 1.36488 157.106 3.17297C152.243 5.20096 143.936 8.25516 133.185 25.0899V2.17119H107.628V61.9236C90.3042 84.8301 62.4572 84.7006 51.5061 82.267C37.9185 79.225 27.781 68.8823 26.1586 49.0129H90.6438C90.6438 17.3787 76.8535 2.16876 47.4501 2.16876C19.4663 2.16876 0 22.6514 0 51.2437C0 74.9687 15.5764 96.2333 44.8137 99.5049C71.8177 102.527 94.7828 84.0165 107.628 66.3363L133.185 30.761C140.686 18.593 148.994 16.565 148.994 18.7885C148.994 22.4535 150.631 25.8987 153.661 28.733C160.16 34.2061 169.494 33.3998 174.967 27.1204C180.44 21.0364 179.829 11.2849 173.549 5.8118ZM46.4361 5.61633C57.5876 5.61633 65.9048 20.0151 65.9048 45.5653H26.1586C26.1586 26.099 34.4709 5.61633 46.4361 5.61633ZM107.628 99.4927H133.185V36.6983L107.628 72.2492V99.4927Z" fill="black"/>
</svg>
